<?xml version="1.0" standalone="no"?><!DOCTYPE svg PUBLIC "-//W3C//DTD SVG 1.1//EN" "http://www.w3.org/Graphics/SVG/1.1/DTD/svg11.dtd"><svg t="1720490900943" class="icon" viewBox="0 0 1024 1024" version="1.1" xmlns="http://www.w3.org/2000/svg" p-id="6922" xmlns:xlink="http://www.w3.org/1999/xlink" width="200" height="200"><path d="M512 1024C229.7 1024 0 794.3 0 512S229.7 0 512 0s512 229.7 512 512-229.7 512-512 512z m0-997.6C244.2 26.4 26.4 244.2 26.4 512S244.2 997.6 512 997.6 997.6 779.8 997.6 512 779.8 26.4 512 26.4z" fill="#804F21" p-id="6923"></path><path d="M455.3 825.9c-1.3 0-2.6-0.2-3.9-0.7-115.7-45-114.6-93.3-113.2-154.5l0.1-2c0.1-5.6 4.6-10.2 10.2-10.5 5.3-0.4 10.5 3.8 11.3 9.4 9.3 72.1 96.1 84.3 97 84.4 5.4 0.7 9.4 5.3 9.4 10.7v52.5c0 3.6-1.8 6.9-4.7 8.9-1.9 1.2-4.1 1.8-6.2 1.8z m-92.6-100.2c6.7 27.8 26.5 49.8 81.8 73.4v-27.5c-17.6-4.1-56.1-15.9-81.8-45.9zM568.7 825.9c-2.1 0-4.3-0.6-6.1-1.9-2.9-2-4.7-5.3-4.7-8.9v-52.5c0-5.4 4-10 9.4-10.7 3.6-0.5 87.7-12.6 97-84.4 0.7-5.6 5.7-9.7 11.3-9.4 5.6 0.3 10.1 4.9 10.2 10.5l0.1 1.9c1.4 61.2 2.5 109.6-113.2 154.5-1.3 0.7-2.7 0.9-4 0.9z m10.8-54.3v27.5c55.3-23.6 75.1-45.6 81.8-73.4-25.7 30-64.2 41.8-81.8 45.9z" fill="#804F21" p-id="6924"></path><path d="M544.6 833.1h-70.9c-23 0-41.7-18.8-41.7-41.7 0-23 18.8-41.7 41.7-41.7h70.9c23 0 41.7 18.8 41.7 41.7 0 22.9-18.8 41.7-41.7 41.7z" fill="#FFFFFF" p-id="6925"></path><path d="M544.6 843.9h-70.9c-29 0-52.5-23.6-52.5-52.5 0-29 23.6-52.5 52.5-52.5h70.9c29 0 52.5 23.6 52.5 52.5s-23.6 52.5-52.5 52.5z m-70.9-83.5c-17 0-30.9 13.9-30.9 30.9 0 17.1 13.9 30.9 30.9 30.9h70.9c17 0 30.9-13.9 30.9-30.9 0-17.1-13.9-30.9-30.9-30.9h-70.9z" fill="#E88319" p-id="6926"></path><path d="M420.8 502.5c-5.1 0-9.3-4.2-9.3-9.3v-58.1c0-5.1 4.2-9.3 9.3-9.3 5.1 0 9.3 4.2 9.3 9.3v58.1c0 5.2-4.2 9.3-9.3 9.3zM598.4 502.5c-5.1 0-9.3-4.2-9.3-9.3v-58.1c0-5.1 4.2-9.3 9.3-9.3 5.1 0 9.3 4.2 9.3 9.3v58.1c0 5.2-4.2 9.3-9.3 9.3zM554 628.3c0 15.1-18.5 21.3-41.3 21.3-22.8 0-41.3-6.2-41.3-21.3S490 595 512.8 595c22.8 0 41.2 18.2 41.2 33.3z" fill="#804F21" p-id="6927"></path><path d="M511.3 691.1c-4.1 0-7.4-3.3-7.4-7.4v-32c0-4.1 3.3-7.4 7.4-7.4 4.1 0 7.4 3.3 7.4 7.4v32c0 4.1-3.3 7.4-7.4 7.4z" fill="#804F21" p-id="6928"></path><path d="M516.5 730.9l-5.7-0.1-13.2 0.1-0.1-0.9c-103.8-9.7-183.8-96.6-183.8-202v-9.3c-17.4 20.8-35.3 30.2-53.3 28-32.8-4-51.6-45.2-56.1-60.8-11.5-58.8 26.4-130.4 62.3-174.2 17.8-21.7 46.4-26.9 79.4-14.6 7-8 14.8-13 23-18.3 3-1.9 6.2-4 9.7-6.3l2.2-1.4c0.7-0.6 2.8-2.1 5-3.4l2.8-1.8c34-20.8 77.2-32.3 121.5-32.3 36.3 0 71.7 7.6 102.2 21.9l9.7 4c18.3 7.5 37.2 15.2 51.6 32.4 1.5 1.8 2.9 3.6 4.2 5.3 33.1-12.4 61.8-7.4 79.7 14.5 35.9 43.7 73.8 115.3 62.5 173.2-4.7 16.5-23.5 57.8-56.3 61.7-18.2 2.2-35.9-7.2-53.3-28v9.3c0 105.4-80 192.3-183.8 202l-0.1 0.7-10.1 0.3z m-4.3-21.7h1.6l2.2-0.2c96.9-4.5 172.8-84 172.8-181.1v-84.7l20.2 35.1c18.4 32.1 37.1 48.7 52.1 46.9 19.3-2.3 34.2-32.1 38-45.4 10.3-53.1-31.7-122.2-58.2-154.5-17.4-21.2-46.5-12.3-62.3-5.1l-8.3 3.8-5.1-7.6c-2.4-3.5-5-6.9-7.7-10.2-11.4-13.7-26.3-19.8-43.6-26.8-3.4-1.4-6.9-2.8-10.4-4.3-62.2-29.2-147.8-25.1-203.7 9.1l-2.4 1.5c-2 1.3-3.8 2.5-5.6 3.8h-0.1c-4 2.8-7.7 5.1-11.2 7.4-9.8 6.3-16.3 10.4-22.1 19.2l-5.1 7.6-8.4-3.7c-15.7-7.1-44.6-15.7-61.8 5.3-26.5 32.3-68.5 101.4-58 155.4 3.6 12.3 18.5 42.1 37.8 44.4 15.1 1.7 33.7-14.8 52.1-46.9l20.2-35.1V528c0 97 75.9 176.6 172.8 181.1l3 0.1h1.2z" fill="#804F21" p-id="6929"></path></svg>